HIERARCHY
ROOT root
{
	OFFSET 0.000000 0.000000 0.000000
	CHANNELS 6 Xposition Yposition Zposition Zrotation Yrotation Xrotation
	JOINT lhip
	{
		OFFSET 0.058581 -0.082280 -0.017664
		CHANNELS 3 Zrotation Yrotation Xrotation
		JOINT lknee
		{
			OFFSET 0.043451 -0.386469 0.008037
			CHANNELS 3 Zrotation Yrotation Xrotation
			JOINT lankle
			{
				OFFSET -0.014790 -0.426874 -0.037428
				CHANNELS 3 Zrotation Yrotation Xrotation
				JOINT ltoe
				{
					OFFSET 0.041054 -0.060286 0.122042
					CHANNELS 3 Zrotation Yrotation Xrotation
					End Site
					{
						OFFSET 0.000000 0.000000 0.000000
					}
				}
			}
		}
	}
	JOINT rhip
	{
		OFFSET -0.060310 -0.090513 -0.013543
		CHANNELS 3 Zrotation Yrotation Xrotation
		JOINT rknee
		{
			OFFSET -0.043257 -0.383688 -0.004843
			CHANNELS 3 Zrotation Yrotation Xrotation
			JOINT rankle
			{
				OFFSET 0.019056 -0.420046 -0.034562
				CHANNELS 3 Zrotation Yrotation Xrotation
				JOINT rtoe
				{
					OFFSET -0.034840 -0.062106 0.130323
					CHANNELS 3 Zrotation Yrotation Xrotation
					End Site
					{
						OFFSET 0.000000 0.000000 0.000000
					}
				}
			}
		}
	}
	JOINT lowerback
	{
		OFFSET 0.004439 0.124404 -0.038385
		CHANNELS 3 Zrotation Yrotation Xrotation
		JOINT upperback
		{
			OFFSET 0.004488 0.137956 0.026820
			CHANNELS 3 Zrotation Yrotation Xrotation
			JOINT chest
			{
				OFFSET -0.002265 0.056032 0.002855
				CHANNELS 3 Zrotation Yrotation Xrotation
				JOINT lowerneck
				{
					OFFSET -0.013390 0.211636 -0.033468
					CHANNELS 3 Zrotation Yrotation Xrotation
					JOINT upperneck
					{
						OFFSET 0.010113 0.088937 0.050410
						CHANNELS 3 Zrotation Yrotation Xrotation
						End Site
						{
							OFFSET 0.000000 0.000000 0.000000
						}
					}
				}
				JOINT lclavicle
				{
					OFFSET 0.071702 0.114000 -0.018898
					CHANNELS 3 Zrotation Yrotation Xrotation
					JOINT lshoulder
					{
						OFFSET 0.122921 0.045205 -0.019046
						CHANNELS 3 Zrotation Yrotation Xrotation
						JOINT lelbow
						{
							OFFSET 0.255332 -0.015649 -0.022946
							CHANNELS 3 Zrotation Yrotation Xrotation
							JOINT lwrist
							{
								OFFSET 0.265709 0.012698 -0.007375
								CHANNELS 3 Zrotation Yrotation Xrotation
								End Site
								{
									OFFSET 0.000000 0.000000 0.000000
								}
							}
						}
					}
				}
				JOINT rclavicle
				{
					OFFSET -0.082954 0.112472 -0.023707
					CHANNELS 3 Zrotation Yrotation Xrotation
					JOINT rshoulder
					{
						OFFSET -0.113228 0.046853 -0.008472
						CHANNELS 3 Zrotation Yrotation Xrotation
						JOINT relbow
						{
							OFFSET -0.260127 -0.014369 -0.031269
							CHANNELS 3 Zrotation Yrotation Xrotation
							JOINT rwrist
							{
								OFFSET -0.269108 0.006794 -0.006027
								CHANNELS 3 Zrotation Yrotation Xrotation
								End Site
								{
									OFFSET 0.000000 0.000000 0.000000
								}
							}
						}
					}
				}
			}
		}
	}
}
MOTION
Frames: 10
Frame Time: 0.033333
0.022841 0.212363 0.990875 93.254277 1.394815 80.245600 4.470228 -3.453247 2.027777 -3.464284 -5.236973 20.525245 -1.567656 8.421279 -15.549404 0.000000 -0.000000 0.000000 -0.229733 -5.503440 2.197195 -3.363486 -3.334282 21.646914 3.878569 -2.999249 -14.831792 0.000000 -0.000000 0.000000 -2.971982 -0.051213 4.765218 -5.208582 -1.745713 5.005644 -2.436173 -1.165905 -2.488428 -4.195672 -17.700090 2.639556 13.281643 -11.071064 8.134437 -21.455078 -14.288322 -1.151392 -43.883862 -49.882874 6.915387 137.314491 -24.647094 -124.526186 14.200334 -7.918374 -33.246602 18.999857 15.726718 1.890433 64.276343 7.246772 13.394698 -9.422937 17.191545 -5.736309 20.825201 -2.683560 0.107164 
0.020277 0.212492 0.990549 94.368998 1.572767 80.313638 4.801605 -3.469989 1.205852 -3.733875 -5.592029 21.320475 -1.657772 7.813008 -15.962607 0.000000 -0.000000 0.000000 -0.083435 -5.726868 1.879458 -3.462400 -4.115134 22.195846 3.798128 -3.104161 -15.196224 0.000000 -0.000000 0.000000 -3.166623 -0.171474 5.250743 -4.928416 -2.002915 5.064305 -2.245485 -1.063222 -2.627350 -4.605871 -17.127793 2.751588 12.783203 -11.235910 8.015965 -20.858931 -14.229710 -1.558010 -43.508429 -50.389473 6.617254 137.103028 -25.416080 -123.849088 13.996382 -8.194785 -33.401044 19.205510 15.919615 1.973116 63.217442 7.327368 13.279629 -9.367532 16.606644 -5.307569 20.183523 -2.337399 0.282015 
0.018109 0.212405 0.990586 95.061238 1.665455 80.533981 4.909927 -3.738664 0.480548 -3.789275 -5.713850 21.759392 -1.632152 7.527581 -15.834376 0.000000 -0.000000 0.000000 -0.017594 -5.927030 1.604909 -3.437937 -4.436556 22.193334 3.781471 -3.286099 -15.176763 0.000000 -0.000000 0.000000 -3.091971 -0.034298 5.616928 -4.756210 -2.055822 4.996823 -2.170801 -0.918168 -2.487610 -4.753250 -16.713061 2.241613 12.479083 -11.517024 7.779186 -20.195593 -13.890273 -1.905443 -43.054922 -50.952652 6.155587 137.488818 -26.071035 -123.851141 13.904066 -8.683566 -33.169964 19.037615 15.537198 1.944707 62.839001 7.318101 13.101102 -9.685458 16.901947 -5.294389 18.787333 -1.446100 0.609086 
0.016279 0.212433 0.990902 95.417058 1.718711 80.639006 4.862209 -4.061909 0.022840 -3.794946 -5.875116 22.037122 -1.667979 7.631811 -15.584904 0.000000 -0.000000 0.000000 0.061972 -5.969737 1.517953 -3.453738 -4.546119 21.988162 3.816929 -3.461216 -15.096220 0.000000 -0.000000 0.000000 -2.980854 0.358181 6.226436 -4.599865 -1.879384 4.517181 -1.962513 -0.739789 -2.121887 -4.786005 -16.639959 1.956018 12.456152 -11.773794 7.319361 -19.760964 -13.742081 -2.236779 -43.359340 -50.731823 6.116111 137.182711 -26.741049 -123.309814 13.770776 -8.684164 -32.912106 18.834167 15.149041 1.960539 62.616547 6.559539 12.683340 -10.356004 18.480402 -5.546942 17.497390 -0.863015 0.224866 
0.014462 0.212663 0.991487 95.810640 1.644777 80.723662 4.666105 -4.669344 -0.201552 -3.821980 -5.855727 22.007543 -1.660886 7.857352 -15.525186 0.000000 -0.000000 0.000000 0.005011 -5.909605 1.445673 -3.460885 -4.727331 21.831093 3.818727 -3.759748 -15.009474 0.000000 -0.000000 0.000000 -2.976834 0.934496 6.737644 -4.360844 -1.735895 4.386100 -1.768130 -0.871957 -1.864457 -4.544034 -16.822140 1.416561 12.448001 -11.984100 6.990087 -19.520565 -13.659129 -2.191781 -44.089349 -49.828238 6.592003 136.438018 -27.134983 -122.557682 13.612987 -8.751349 -32.558185 18.687931 14.793108 1.706339 62.521899 5.718613 12.427786 -11.201615 20.121177 -6.330346 19.212690 -0.957186 -1.477597 
0.012758 0.213107 0.991890 96.277072 1.602507 80.914916 4.534606 -4.888923 -0.538151 -3.755138 -5.941272 21.869355 -1.621374 7.726880 -15.296646 0.000000 -0.000000 0.000000 -0.060248 -5.870672 1.248829 -3.486710 -5.101002 21.710742 3.820446 -3.888063 -14.954779 0.000000 -0.000000 0.000000 -3.029967 1.083108 7.072633 -4.072379 -1.743334 4.476522 -1.472215 -0.812661 -1.765604 -4.275746 -16.886590 0.891664 12.431660 -11.982291 6.614658 -19.661696 -13.026979 -1.997192 -45.881615 -48.577206 7.731376 135.897133 -28.125112 -122.093548 13.305331 -8.516694 -32.035708 18.599534 14.219554 1.622412 62.277265 5.316576 12.090312 -11.622912 21.852020 -7.215757 19.889674 -0.728996 -3.078104 
0.010904 0.213872 0.992494 96.760098 1.609826 81.109230 4.483448 -4.882878 -0.885031 -3.568662 -5.871437 21.725835 -1.668564 7.183248 -15.116897 0.000000 -0.000000 0.000000 -0.028397 -5.809559 1.038097 -3.613118 -5.440867 21.597024 3.725470 -4.077330 -14.870721 0.000000 -0.000000 0.000000 -2.922473 0.986744 7.348418 -3.810949 -1.843528 4.807514 -1.153801 -0.764709 -1.755862 -4.003993 -16.947103 0.347146 12.274392 -11.615462 6.066739 -20.109537 -12.144176 -1.518394 -48.119155 -46.589746 8.630201 135.800874 -29.808475 -121.680662 12.535923 -9.003482 -31.988422 18.601195 14.026366 2.004222 62.003883 5.120920 11.741568 -12.344637 24.236197 -8.099230 19.207956 0.359513 -3.704894 
0.008626 0.215106 0.992945 97.166443 1.605068 81.446101 4.355934 -4.882613 -1.552698 -3.428811 -5.957890 21.858294 -1.654021 6.752473 -14.793117 0.000000 -0.000000 0.000000 -0.101876 -5.795333 0.605111 -3.615488 -5.689699 21.518562 3.577097 -4.225592 -14.707596 0.000000 -0.000000 0.000000 -2.637989 0.858241 7.405858 -3.528836 -1.958542 5.269941 -0.874152 -0.770404 -1.731946 -3.785415 -16.881336 -0.458996 11.828082 -11.146161 5.550800 -20.719912 -11.118516 -0.619253 -50.666443 -43.725643 9.596417 135.866559 -32.168258 -121.049658 11.981296 -9.560091 -31.387162 18.535638 13.799951 2.408679 61.745112 4.982867 11.389987 -13.108073 27.423226 -8.616832 18.348812 1.705308 -4.556039 
0.007777 0.216619 0.993504 97.142749 1.512153 81.584015 4.172633 -4.545719 -1.608256 -3.179786 -5.836047 21.579807 -1.500811 6.269198 -14.602558 0.000000 -0.000000 0.000000 -0.312484 -5.910177 0.459309 -3.652667 -5.719649 21.373528 3.444297 -3.984510 -14.589622 0.000000 -0.000000 0.000000 -2.375853 0.817476 7.493275 -3.239369 -1.929270 5.787622 -0.637097 -0.670645 -1.676528 -3.458855 -16.799392 -1.261822 11.474340 -10.623088 4.883295 -21.057284 -9.543820 0.192712 -54.659278 -39.832884 12.088995 136.995952 -35.679433 -122.188033 10.986597 -9.563294 -32.496585 18.292805 13.065335 2.532192 61.631148 4.661826 11.378233 -13.833593 32.102597 -9.488295 18.780463 2.848898 -6.155031 
0.006098 0.218317 0.994229 96.742391 1.270832 82.056574 3.799567 -4.597568 -1.944565 -2.932711 -5.321106 21.166124 -1.275949 6.213557 -14.294971 0.000000 -0.000000 0.000000 -0.631785 -5.683391 -0.341117 -3.724519 -5.750452 21.585060 3.498610 -3.696857 -14.432238 0.000000 -0.000000 0.000000 -2.250865 0.950615 7.350665 -2.854762 -1.775688 6.051509 -0.357626 -0.488254 -1.633106 -3.197958 -16.600855 -1.758917 11.056392 -10.253933 3.798619 -20.935493 -8.116552 1.158229 -59.698763 -35.399198 15.796060 138.910343 -40.272701 -124.391779 10.189911 -9.284763 -33.882505 17.715574 12.285203 2.711574 61.551475 4.560103 11.821993 -14.557951 37.696240 -10.359446 18.791090 4.103273 -8.319592 
